HIERARCHY
ROOT Hips
{
  OFFSET -43.3411 73.6987 0
  CHANNELS 6 Xposition Yposition Zposition Zrotation Xrotation Yrotation
  JOINT Bip01_Pelvis
  {
    OFFSET 0 0 0
    CHANNELS 6 Xposition Yposition Zposition Zrotation Xrotation Yrotation
    JOINT BN_Tail_01
    {
      OFFSET -18.6385 -9.591 -2.032e-005
      CHANNELS 6 Xposition Yposition Zposition Zrotation Xrotation Yrotation
      JOINT BN_Tail_02
      {
        OFFSET 20.9743 0 0
        CHANNELS 6 Xposition Yposition Zposition Zrotation Xrotation Yrotation
        JOINT BN_Tail_03
        {
          OFFSET 20.3015 0 0
          CHANNELS 6 Xposition Yposition Zposition Zrotation Xrotation Yrotation
          JOINT BN_Tail_04
          {
            OFFSET 21.6394 -9.91821e-005 0
            CHANNELS 6 Xposition Yposition Zposition Zrotation Xrotation Yrotation
            End Site
            {
              OFFSET 0 0 0
            }
          }
        }
      }
    }
    JOINT Bip01_Spine
    {
      OFFSET 22.1878 -0.659386 3.048e-005
      CHANNELS 6 Xposition Yposition Zposition Zrotation Xrotation Yrotation
      JOINT Bip01_R_Thigh
      {
        OFFSET -22.1873 0.677109 -17.1024
        CHANNELS 6 Xposition Yposition Zposition Zrotation Xrotation Yrotation
        JOINT Bip01_R_Calf
        {
          OFFSET 34.2647 0 0
          CHANNELS 6 Xposition Yposition Zposition Zrotation Xrotation Yrotation
          JOINT Bip01_R_HorseLink
          {
            OFFSET 20.4429 0 0
            CHANNELS 6 Xposition Yposition Zposition Zrotation Xrotation Yrotation
            JOINT Bip01_R_Foot
            {
              OFFSET 16.5673 0 0
              CHANNELS 6 Xposition Yposition Zposition Zrotation Xrotation Yrotation
              JOINT Bip01_R_Toe0
              {
                OFFSET 9.18784 6.94841 0
                CHANNELS 6 Xposition Yposition Zposition Zrotation Xrotation Yrotation
                JOINT Bip01_R_Toe0Nub
                {
                  OFFSET 1.01907 0 0
                  CHANNELS 6 Xposition Yposition Zposition Zrotation Xrotation Yrotation
                  End Site
                  {
                    OFFSET 0 0 0
                  }
                }
              }
            }
          }
        }
      }
      JOINT Bip01_L_Thigh
      {
        OFFSET -22.1873 0.67701 17.1024
        CHANNELS 6 Xposition Yposition Zposition Zrotation Xrotation Yrotation
        JOINT Bip01_L_Calf
        {
          OFFSET 34.2647 0 0
          CHANNELS 6 Xposition Yposition Zposition Zrotation Xrotation Yrotation
          JOINT Bip01_L_HorseLink
          {
            OFFSET 20.4429 0 0
            CHANNELS 6 Xposition Yposition Zposition Zrotation Xrotation Yrotation
            JOINT Bip01_L_Foot
            {
              OFFSET 16.5673 0 0
              CHANNELS 6 Xposition Yposition Zposition Zrotation Xrotation Yrotation
              JOINT Bip01_L_Toe0
              {
                OFFSET 9.18784 6.9484 1.14441e-005
                CHANNELS 6 Xposition Yposition Zposition Zrotation Xrotation Yrotation
                JOINT Bip01_L_Toe0Nub
                {
                  OFFSET 1.01907 0 0
                  CHANNELS 6 Xposition Yposition Zposition Zrotation Xrotation Yrotation
                  End Site
                  {
                    OFFSET 0 0 0
                  }
                }
              }
            }
          }
        }
      }
      JOINT Bip01_Spine1
      {
        OFFSET 39.3372 -0.0249863 0
        CHANNELS 6 Xposition Yposition Zposition Zrotation Xrotation Yrotation
        JOINT Bip01_Neck
        {
          OFFSET 34.2837 -15.5934 -4.318e-005
          CHANNELS 6 Xposition Yposition Zposition Zrotation Xrotation Yrotation
          JOINT Bip01_R_Clavicle
          {
            OFFSET -17.9452 -11.3131 -6.19287
            CHANNELS 6 Xposition Yposition Zposition Zrotation Xrotation Yrotation
            JOINT Bip01_R_UpperArm
            {
              OFFSET 17.4439 1.52588e-005 -2.28882e-005
              CHANNELS 6 Xposition Yposition Zposition Zrotation Xrotation Yrotation
              JOINT Bip01_R_Forearm
              {
                OFFSET 30.6251 1.14441e-005 0
                CHANNELS 6 Xposition Yposition Zposition Zrotation Xrotation Yrotation
                JOINT Bip01_R_Hand
                {
                  OFFSET 31.2039 0 0
                  CHANNELS 6 Xposition Yposition Zposition Zrotation Xrotation Yrotation
                  JOINT Bip01_R_Finger0
                  {
                    OFFSET 22.1039 0.255862 -0.37902
                    CHANNELS 6 Xposition Yposition Zposition Zrotation Xrotation Yrotation
                    JOINT Bip01_R_Finger0Nub
                    {
                      OFFSET 12.0552 0 0
                      CHANNELS 6 Xposition Yposition Zposition Zrotation Xrotation Yrotation
                      End Site
                      {
                        OFFSET 0 0 0
                      }
                    }
                  }
                }
              }
            }
          }
          JOINT Bip01_L_Clavicle
          {
            OFFSET -17.9452 -11.3132 6.19281
            CHANNELS 6 Xposition Yposition Zposition Zrotation Xrotation Yrotation
            JOINT Bip01_L_UpperArm
            {
              OFFSET 17.444 0 1.14441e-005
              CHANNELS 6 Xposition Yposition Zposition Zrotation Xrotation Yrotation
              JOINT Bip01_L_Forearm
              {
                OFFSET 30.6251 0 0
                CHANNELS 6 Xposition Yposition Zposition Zrotation Xrotation Yrotation
                JOINT Bip01_L_Hand
                {
                  OFFSET 31.204 0 0
                  CHANNELS 6 Xposition Yposition Zposition Zrotation Xrotation Yrotation
                  JOINT Bip01_L_Finger0
                  {
                    OFFSET 22.1039 0.255856 0.379024
                    CHANNELS 6 Xposition Yposition Zposition Zrotation Xrotation Yrotation
                    JOINT Bip01_L_Finger0Nub
                    {
                      OFFSET 12.0552 0 0
                      CHANNELS 6 Xposition Yposition Zposition Zrotation Xrotation Yrotation
                      End Site
                      {
                        OFFSET 0 0 0
                      }
                    }
                  }
                }
              }
            }
          }
          JOINT Bip01_Neck1
          {
            OFFSET 14.9359 -0.0106278 0
            CHANNELS 6 Xposition Yposition Zposition Zrotation Xrotation Yrotation
            JOINT Bip01_Head
            {
              OFFSET 14.3578 0.505501 0
              CHANNELS 6 Xposition Yposition Zposition Zrotation Xrotation Yrotation
              JOINT BN_Ear_L_01
              {
                OFFSET 3.76994 -2.35629 12.3444
                CHANNELS 6 Xposition Yposition Zposition Zrotation Xrotation Yrotation
                End Site
                {
                  OFFSET 0 0 0
                }
              }
              JOINT BN_Ear_R_01
              {
                OFFSET 3.76995 -2.35622 -12.3442
                CHANNELS 6 Xposition Yposition Zposition Zrotation Xrotation Yrotation
                End Site
                {
                  OFFSET 0 0 0
                }
              }
              JOINT BN_Mouth_01
              {
                OFFSET 11.8395 10.8645 1.27e-005
                CHANNELS 6 Xposition Yposition Zposition Zrotation Xrotation Yrotation
                JOINT BN_Tongue_01
                {
                  OFFSET 9.73752 3.21674 1.016e-005
                  CHANNELS 6 Xposition Yposition Zposition Zrotation Xrotation Yrotation
                  JOINT BN_Tongue_02
                  {
                    OFFSET 9.04304 0.053505 0
                    CHANNELS 6 Xposition Yposition Zposition Zrotation Xrotation Yrotation
                    End Site
                    {
                      OFFSET 0 0 0
                    }
                  }
                }
                JOINT BN_Beard_01
                {
                  OFFSET 6.93466 -0.751793 0
                  CHANNELS 6 Xposition Yposition Zposition Zrotation Xrotation Yrotation
                  JOINT BN_Beard_02
                  {
                    OFFSET 13.0965 1.52588e-005 0
                    CHANNELS 6 Xposition Yposition Zposition Zrotation Xrotation Yrotation
                    End Site
                    {
                      OFFSET 0 0 0
                    }
                  }
                }
              }
              JOINT Bip01_HeadNub
              {
                OFFSET 25.6158 0 0
                CHANNELS 6 Xposition Yposition Zposition Zrotation Xrotation Yrotation
                End Site
                {
                  OFFSET 0 0 0
                }
              }
            }
          }
        }
      }
    }
  }
}
MOTION
Frames:	4
Frame Time:	0.0333333
-42.555 11.4037 1.37519 176.4 -4.99981 -98.7484 4.76837e-007 1.77636e-015 -7.10543e-015 -97.0987 -7.54236 -85.8189 -18.6385 -9.59099 0 -21.2188 0.313859 -169.975 20.9743 1.90735e-006 0 13.0861 -1.02412 -3.64632 20.3015 -7.6294e-006 3.8147e-006 2.49017 4.77994 -2.28523 21.6394 0 0 -12.0226 -2.39457 -2.51394 21.8537 -3.55729 1.5095 -15.6412 19.4473 2.17019 -21.3541 -8.52303 -17.55 -80.9467 -31.4441 169.443 34.2647 -1.90735e-006 3.8147e-006 -91.2394 -8.75338e-006 1.83657e-005 20.4429 3.8147e-006 0 55.8172 4.5663e-006 9.87631e-007 16.5673 -3.8147e-006 3.8147e-006 -40.4346 5.08211 4.89426 9.18783 6.9484 0 85.3351 55.9538 73.463 1.01906 8.88178e-016 -7.6294e-006 -3.97943e-008 -1.09057e-008 2.38287e-007 -22.5756 2.86533 14.6803 -83.5527 -9.03473 152.123 34.2647 0 -2.38419e-007 -65.4538 2.05392e-006 1.95534e-005 20.4429 3.8147e-006 4.76837e-007 75.3562 2.04356e-006 -3.73382e-006 16.5673 7.6294e-006 2.38419e-007 -54.5059 -8.97581 20.6378 9.18785 6.94841 1.90735e-006 124.995 8.34598e-006 -9.18169e-006 1.01907 1.42109e-014 0 -179.96 -8.2341e-005 4.47688e-005 39.345 -0.0175152 -0.0160246 23.9859 39.9574 -2.42271 34.2857 -15.5931 0.00102711 12.6443 -5.04418 -0.099396 -19.6296 -7.50117 -6.8462 166.268 -42.0278 111.754 17.4439 3.8147e-006 -3.8147e-006 109.941 48.3779 -149.364 30.6251 3.8147e-006 -3.33786e-006 -55.177 3.15359e-006 6.53595e-006 31.2039 -1.90735e-006 -4.76837e-007 -165.648 85.729 157.974 22.1039 0.255848 -0.379028 -1.69405 4.1071 -24.5926 12.0552 -2.26498e-006 -1.90734e-006 -179.96 1.84505e-005 1.74994e-005 -19.6082 -8.5905 5.49146 167.365 1.09207 -107.784 17.4439 0 7.62939e-006 -145.207 -58.8975 -98.9463 30.6251 3.8147e-006 0 -66.8268 -1.01632e-005 -1.74983e-005 31.2039 5.72206e-006 -3.81469e-006 172.92 -84.1738 156.452 22.1039 0.255875 0.379043 -4.97938 1.99249 4.44996 12.0552 0 -1.19209e-007 2.97264e-007 -2.40659e-009 2.65449e-008 14.939 -0.00992966 5.96046e-008 21.2724 -0.779202 16.6825 14.3577 0.50549 9.53674e-007 -14.0742 27.5992 11.7786 3.76992 -2.35629 12.3444 -172.61 28.9022 -94.5938 3.76995 -2.35624 -12.3442 4.80713 35.6478 100.861 11.8395 10.8645 0 -174.283 -3.84495 178.973 9.7375 3.21676 -7.6294e-006 -2.85749 1.05314e-005 1.80563e-006 2.55461 -1.10588 -0.153767 4.77834 -2.94618 -1.72235 6.93462 -0.751784 -7.6294e-006 -55.8174 -26.9019 -56.2759 13.0966 -7.6294e-006 -9.53674e-007 3.94405 41.2487 -20.906 25.6158 3.8147e-006 7.6294e-006 -1.83992e-007 2.35671e-006 -1.09063e-006 
-42.555 11.3999 1.37519 176.4 -4.99981 -98.7484 4.76837e-007 1.77636e-015 0 -96.9943 -7.52946 -85.9069 -18.6385 -9.59099 -2.19861e-009 -21.2184 0.310313 -169.975 20.9743 1.90735e-006 0 13.0863 -1.02173 -3.62491 20.3015 -7.6294e-006 3.8147e-006 2.49017 4.77994 -2.28523 21.6394 -1.42109e-014 1.77636e-014 -12.0226 -2.39457 -2.51394 21.8566 -3.55318 1.47599 -15.6772 19.3122 2.26082 -21.3296 -8.4869 -17.5668 -80.8824 -31.443 169.475 34.2647 -1.90735e-006 3.8147e-006 -91.2799 1.18341e-006 1.85066e-005 20.4429 3.8147e-006 -7.10543e-015 55.9112 1.17133e-005 5.81952e-006 16.5673 -3.8147e-006 3.8147e-006 -40.4356 5.07214 4.90601 9.18783 6.9484 -2.87351e-010 85.3351 55.9538 73.463 1.01906 7.9936e-015 -7.6294e-006 -3.97943e-008 -1.09057e-008 2.38287e-007 -22.5993 2.82643 14.688 -83.565 -9.01041 152.121 34.2647 -2.84217e-014 -2.38419e-007 -65.3656 1.08378e-005 1.55898e-005 20.4429 3.8147e-006 4.76837e-007 75.247 -7.64139e-006 -6.25963e-006 16.5673 7.6294e-006 2.38419e-007 -54.5059 -8.97581 20.6378 9.18785 6.94841 1.90756e-006 124.995 0.000221582 -0.000158467 1.01907 -1.42109e-014 3.90798e-014 -179.96 -8.2341e-005 4.47688e-005 39.345 -0.0175152 -0.0160246 23.9986 39.9593 -2.43561 34.2857 -15.5931 0.00102711 12.5612 -5.02987 -0.0434298 -19.6113 -7.53269 -6.86484 166.409 -42.0233 111.841 17.4439 3.8147e-006 -3.8147e-006 109.942 48.3799 -149.368 30.6251 3.8147e-006 -3.33786e-006 -55.1811 4.59307e-006 5.57387e-006 31.2039 -1.90735e-006 -4.76837e-007 -165.551 85.7333 157.892 22.1039 0.255848 -0.379028 -1.69405 4.1071 -24.5926 12.0552 -2.26498e-006 -1.90734e-006 -179.96 1.84505e-005 1.74994e-005 -19.6012 -8.61841 5.47277 167.436 1.1131 -107.718 17.4439 -1.42109e-014 7.62939e-006 -145.207 -58.8957 -98.9459 30.6251 3.8147e-006 2.84217e-014 -66.8268 -1.01552e-005 -1.74988e-005 31.2039 5.72206e-006 -3.8147e-006 172.929 -84.1723 156.45 22.1039 0.255875 0.379043 -4.97938 1.99249 4.44996 12.0552 0 -1.19209e-007 2.97264e-007 -2.40659e-009 2.65449e-008 14.939 -0.00992966 5.96046e-008 21.2731 -0.700465 16.6168 14.3577 0.50549 9.53478e-007 -13.8799 27.5022 11.6299 3.76992 -2.35629 12.3444 -172.625 28.7347 -94.5864 3.76995 -2.35624 -12.3442 4.85533 35.4432 100.833 11.8395 10.8645 -9.61109e-009 -174.375 -3.76555 178.952 9.7375 3.21676 -7.63346e-006 -2.85749 1.05293e-005 1.80349e-006 2.55461 -1.10588 -0.153767 4.77834 -2.94618 -1.72235 6.93462 -0.751784 -7.62845e-006 -55.8024 -26.8729 -56.3244 13.0966 -7.6294e-006 -9.53674e-007 3.94405 41.2487 -20.906 25.6158 3.8147e-006 7.6294e-006 -1.83992e-007 2.35671e-006 -1.09063e-006 
-42.555 11.3963 1.37519 176.4 -4.99981 -98.7484 4.76837e-007 0 0 -96.881 -7.5203 -85.9924 -18.6385 -9.59099 -4.55695e-009 -21.218 0.314153 -170.014 20.9743 1.90735e-006 1.06581e-014 13.0865 -1.0223 -3.56907 20.3015 -7.6294e-006 3.8147e-006 2.49017 4.77994 -2.28523 21.6394 -7.10543e-015 0 -12.0226 -2.39457 -2.51394 21.8594 -3.54915 1.44313 -15.718 19.1669 2.36621 -21.2985 -8.44909 -17.5893 -80.815 -31.418 169.506 34.2647 -1.90735e-006 3.8147e-006 -91.3294 1.23538e-006 1.84326e-005 20.4429 3.8147e-006 0 56.0033 1.17222e-005 5.80443e-006 16.5673 -3.8147e-006 3.8147e-006 -40.4366 5.06236 4.91753 9.18783 6.9484 -6.85041e-010 85.335 55.9538 73.463 1.01906 3.55271e-015 -7.6294e-006 -3.97943e-008 -1.09057e-008 2.38287e-007 -22.6283 2.78331 14.6914 -83.5755 -8.98523 152.139 34.2647 -2.84217e-014 -2.38419e-007 -65.2751 1.12709e-005 1.54667e-005 20.4429 3.8147e-006 4.76837e-007 75.1399 -7.64435e-006 -6.25281e-006 16.5673 7.6294e-006 2.38419e-007 -54.5059 -8.97581 20.6378 9.18785 6.94841 1.90782e-006 124.996 0.000436034 -0.000308609 1.01907 -1.42109e-014 2.84217e-014 -179.96 -8.2341e-005 4.47688e-005 39.345 -0.0175152 -0.0160246 24.0289 39.9543 -2.4682 34.2857 -15.5931 0.00102711 12.4727 -5.01596 0.0111314 -19.5934 -7.56359 -6.88311 166.551 -42.0197 111.928 17.4439 3.8147e-006 -3.8147e-006 109.937 48.3866 -149.373 30.6251 3.8147e-006 -3.33786e-006 -55.1928 4.83205e-006 5.45437e-006 31.2039 -1.90735e-006 -4.76837e-007 -165.458 85.7342 157.838 22.1039 0.255848 -0.379028 -1.69405 4.1071 -24.5926 12.0552 -2.26498e-006 -1.90734e-006 -179.96 1.84505e-005 1.74994e-005 -19.5944 -8.64578 5.45445 167.524 1.11992 -107.651 17.4439 0 7.62939e-006 -145.205 -58.8884 -98.9439 30.6251 3.8147e-006 2.13163e-014 -66.8268 -1.01499e-005 -1.74997e-005 31.2039 5.72206e-006 -3.8147e-006 172.921 -84.1719 156.41 22.1039 0.255875 0.379043 -4.97938 1.99249 4.44996 12.0552 0 -1.19209e-007 2.97264e-007 -2.40659e-009 2.65449e-008 14.939 -0.00992966 5.96045e-008 21.2758 -0.6134 16.5471 14.3577 0.50549 9.53259e-007 -13.6727 27.4016 11.476 3.76992 -2.35629 12.3444 -172.64 28.5706 -94.5792 3.76995 -2.35624 -12.3442 4.90232 35.2425 100.806 11.8395 10.8645 -2.00489e-008 -174.476 -3.80538 178.936 9.7375 3.21676 -7.63758e-006 -2.85749 1.05232e-005 1.94774e-006 2.55461 -1.10588 -0.153767 4.77834 -2.94618 -1.72235 6.93462 -0.751784 -7.62749e-006 -55.7877 -26.8444 -56.372 13.0966 -7.6294e-006 -9.53674e-007 3.94405 41.2487 -20.906 25.6158 3.8147e-006 7.6294e-006 -1.83992e-007 2.35671e-006 -1.09063e-006 
-42.555 11.3858 1.37519 176.4 -4.99981 -98.7484 4.76837e-007 1.77636e-015 0 -96.7634 -7.50754 -86.0917 -18.6385 -9.59099 -7.03883e-009 -21.217 0.310914 -170.054 20.9743 1.90735e-006 3.55271e-015 13.087 -1.02235 -3.47749 20.3015 -7.6294e-006 3.8147e-006 2.49017 4.77994 -2.28523 21.6394 -2.84217e-014 7.10543e-015 -12.0226 -2.39457 -2.51394 21.8624 -3.54481 1.40722 -15.7668 19.0096 2.49743 -21.2603 -8.40991 -17.6207 -80.7425 -31.368 169.535 34.2647 -1.90735e-006 3.8147e-006 -91.3845 -8.79551e-006 1.81233e-005 20.4429 3.8147e-006 0 56.109 4.10551e-006 6.64089e-007 16.5673 -3.8147e-006 3.8147e-006 -40.4376 5.05248 4.92916 9.18783 6.9484 -1.21671e-009 85.335 55.9537 73.4631 1.01906 3.55271e-015 -7.6294e-006 -3.97943e-008 -1.09057e-008 2.38287e-007 -22.6629 2.73397 14.6875 -83.5804 -8.93438 152.149 34.2647 1.42109e-014 -2.38419e-007 -65.1797 1.13343e-005 1.5519e-005 20.4429 3.8147e-006 4.76837e-007 75.0164 -7.3987e-006 -6.17705e-006 16.5673 7.6294e-006 2.38419e-007 -54.5059 -8.97581 20.6378 9.18785 6.94841 1.90801e-006 124.996 0.000653151 -0.000460622 1.01907 1.42109e-014 0 -179.96 -8.2341e-005 4.47688e-005 39.345 -0.0175152 -0.0160246 24.0806 39.9488 -2.5278 34.2857 -15.5931 0.00102711 12.3837 -5.00052 0.0734764 -19.5724 -7.59865 -6.90362 166.705 -42.014 112.022 17.4439 3.8147e-006 -3.8147e-006 109.933 48.3953 -149.382 30.6251 3.8147e-006 -3.33786e-006 -55.2125 3.7284e-006 6.27429e-006 31.2039 -1.90735e-006 -4.76837e-007 -165.248 85.7345 157.695 22.1039 0.255848 -0.379028 -1.69405 4.1071 -24.5926 12.0552 -2.26498e-006 -1.90734e-006 -179.96 1.84505e-005 1.74994e-005 -19.5875 -8.67343 5.43594 167.613 1.12692 -107.584 17.4439 -7.10543e-015 7.62939e-006 -145.202 -58.881 -98.942 30.6251 3.8147e-006 4.26325e-014 -66.8268 -1.01439e-005 -1.75003e-005 31.2039 5.72206e-006 -3.8147e-006 172.896 -84.1725 156.331 22.1039 0.255875 0.379043 -4.97938 1.99249 4.44996 12.0552 0 -1.19209e-007 2.97264e-007 -2.40659e-009 2.65449e-008 14.939 -0.00992966 5.96045e-008 21.2752 -0.525979 16.4767 14.3577 0.50549 9.53036e-007 -13.4572 27.2938 11.3113 3.76992 -2.35629 12.3444 -172.655 28.4048 -94.572 3.76995 -2.35624 -12.3442 4.94957 35.0399 100.779 11.8395 10.8645 -3.15213e-008 -174.582 -3.74143 178.92 9.7375 3.21676 -7.64234e-006 -2.85749 1.05636e-005 1.09537e-006 2.55461 -1.10588 -0.153767 4.77834 -2.94618 -1.72235 6.93462 -0.751784 -7.62637e-006 -55.7729 -26.8157 -56.4201 13.0966 -7.6294e-006 -9.53674e-007 3.94405 41.2487 -20.906 25.6158 3.8147e-006 7.6294e-006 -1.83992e-007 2.35671e-006 -1.09063e-006 
